<svg aria-hidden="true" style="position: absolute; width: 0; height: 0; overflow: hidden;" version="1.1" xmlns="http://www.w3.org/2000/svg" xmlns:xlink="http://www.w3.org/1999/xlink">
<defs>
<symbol id="icon-facebook" viewBox="0 0 15 32">
<path d="M3.881 31.278v-14.677h-3.881v-5.284h3.881v-4.513c0-3.547 2.292-6.804 7.575-6.804 2.139 0 3.72 0.205 3.72 0.205l-0.125 4.935c0 0-1.613-0.016-3.373-0.016-1.905 0-2.21 0.878-2.21 2.335v3.858h5.734l-0.249 5.284h-5.485v14.677h-5.587z"></path>
</symbol>
<symbol id="icon-twitter" viewBox="0 0 40 32">
<path d="M38.638 3.729c-1.421 0.613-2.967 1.054-4.56 1.226 1.654-0.982 2.892-2.534 3.483-4.365-1.552 0.923-3.252 1.57-5.024 1.913-0.741-0.792-1.637-1.423-2.632-1.854s-2.069-0.652-3.153-0.649c-4.388 0-7.917 3.557-7.917 7.922 0 0.613 0.074 1.226 0.195 1.816-6.57-0.344-12.43-3.483-16.326-8.288-0.71 1.212-1.082 2.593-1.077 3.998 0 2.749 1.398 5.173 3.529 6.598-1.256-0.049-2.483-0.395-3.58-1.008v0.098c0 3.849 2.721 7.039 6.348 7.773-0.681 0.177-1.381 0.267-2.085 0.269-0.515 0-1.003-0.051-1.495-0.121 1.003 3.139 3.924 5.419 7.402 5.493-2.721 2.131-6.129 3.385-9.83 3.385-0.664 0-1.277-0.023-1.913-0.098 3.51 2.252 7.676 3.552 12.161 3.552 14.562 0 22.53-12.063 22.53-22.534 0-0.344 0-0.687-0.023-1.031 1.542-1.128 2.893-2.526 3.97-4.095z"></path>
</symbol>
<symbol id="icon-arrows-right" viewBox="0 0 29 32">
<path d="M28.502 16.73l-13.882 14.915c-0.198 0.214-0.426 0.32-0.685 0.32-0.256 0-0.486-0.106-0.685-0.32l-1.491-1.6c-0.198-0.214-0.294-0.461-0.294-0.736 0-0.278 0.096-0.522 0.294-0.736l11.709-12.576-11.709-12.579c-0.198-0.211-0.294-0.458-0.294-0.736 0-0.275 0.096-0.522 0.294-0.736l1.491-1.6c0.198-0.211 0.429-0.32 0.685-0.32 0.259 0 0.486 0.109 0.685 0.32l13.882 14.912c0.198 0.214 0.294 0.461 0.294 0.739s-0.096 0.522-0.294 0.733zM17.36 15.997c0 0.278-0.096 0.522-0.298 0.733l-13.878 14.915c-0.202 0.214-0.429 0.32-0.685 0.32-0.259 0-0.486-0.106-0.685-0.32l-1.491-1.6c-0.195-0.214-0.298-0.461-0.298-0.736 0-0.278 0.102-0.522 0.298-0.736l11.706-12.576-11.706-12.579c-0.195-0.211-0.298-0.458-0.298-0.736 0-0.275 0.102-0.522 0.298-0.736l1.491-1.6c0.198-0.211 0.426-0.32 0.685-0.32 0.256 0 0.483 0.109 0.685 0.32l13.878 14.912c0.202 0.214 0.298 0.461 0.298 0.739z"></path>
</symbol>
<symbol id="icon-home" viewBox="0 0 32 32">
<path d="M15.998-0.002l-15.542 13.716c-0.536 0.476-0.594 1.302-0.128 1.85v0c0.468 0.546 1.282 0.604 1.818 0.13l0.574-0.506v12.88c0 2.17 1.732 3.93 3.868 3.93h7.218v-10.548c0-1.264 1.010-2.292 2.256-2.292v0c1.246 0 2.256 1.028 2.256 2.292v10.548h7.090c2.136 0 3.868-1.76 3.868-3.93v-12.88l0.572 0.506c0.538 0.474 1.352 0.416 1.818-0.13v0c0.468-0.548 0.41-1.374-0.128-1.85l-15.54-13.716zM26.698 28.068c0 0.724-0.578 1.31-1.29 1.31h-4.512v-7.928c0-2.712-2.164-4.912-4.834-4.912v0c-2.67 0-4.834 2.2-4.834 4.912v7.928h-4.64c-0.712 0-1.29-0.586-1.29-1.31v-15.156l10.7-9.444 10.7 9.444v15.156z"></path>
</symbol>
<symbol id="icon-arrow-right" viewBox="0 0 40 32">
<path d="M39.344 14.496l-14.436-13.888c-0.412-0.4-0.96-0.62-1.548-0.62-0.584 0-1.136 0.22-1.548 0.62l-1.308 1.26c-0.412 0.396-0.64 0.924-0.64 1.488s0.228 1.112 0.64 1.508l8.42 8.124h-26.756c-1.208 0-2.16 0.904-2.16 2.064v1.788c0 1.16 0.952 2.16 2.16 2.16h26.852l-8.516 8.168c-0.412 0.396-0.64 0.912-0.64 1.476 0 0.56 0.228 1.084 0.64 1.48l1.308 1.256c0.412 0.396 0.964 0.612 1.548 0.612 0.588 0 1.136-0.216 1.548-0.616l14.436-13.888c0.416-0.4 0.64-0.928 0.64-1.496 0-0.564-0.224-1.096-0.64-1.496z"></path>
</symbol>
<symbol id="icon-cart" viewBox="0 0 35 32">
<path d="M35.189 7.55l-3.203 12.859c-0.146 0.582-0.674 0.994-1.278 0.994h-20.501c-0.61 0-1.139-0.414-1.282-1.005l-4.28-17.784h-3.306c-0.728 0-1.317-0.584-1.317-1.307s0.589-1.307 1.317-1.307h4.346c0.61 0 1.139 0.414 1.282 1.003l1.184 4.923h25.76c0.406 0 0.789 0.186 1.037 0.502 0.25 0.318 0.339 0.731 0.242 1.122zM8.781 8.544l2.466 10.243h18.43l2.552-10.243h-23.448zM11.962 23.277c2.421 0 4.39 1.957 4.39 4.36 0 2.405-1.97 4.358-4.39 4.358s-4.389-1.954-4.389-4.358c0-2.403 1.968-4.36 4.389-4.36zM11.962 29.381c0.97 0 1.757-0.784 1.757-1.744 0-0.962-0.787-1.744-1.757-1.744-0.968 0-1.755 0.782-1.755 1.744 0 0.96 0.787 1.744 1.755 1.744zM27.898 23.277c2.421 0 4.389 1.957 4.389 4.36 0 2.405-1.968 4.358-4.389 4.358s-4.39-1.954-4.39-4.358c0-2.403 1.97-4.36 4.39-4.36zM27.898 29.381c0.968 0 1.755-0.784 1.755-1.744 0-0.962-0.787-1.744-1.755-1.744-0.97 0-1.757 0.782-1.757 1.744 0 0.96 0.787 1.744 1.757 1.744z"></path>
</symbol>
<symbol id="icon-clock" viewBox="0 0 32 32">
<path d="M14.56 17.331c0.704 0 0.107-0.597 0.107-1.333v-9.333c0-0.736 0.597-1.334-0.107-1.334 2.176 0 2.773 0.598 2.773 1.334v8h5.334c0.736 0-0.107 0.597-0.107 1.333s0.843 1.333 0.107 1.333h-8.107zM14.56 31.998c-7.382 0-14.56-7.178-14.56-16s7.178-16 14.56-16c5.043 0 8.573 1.227 11.376 3.456 0.578 0.458 0.674 1.296 0.214 1.872-0.458 0.578-1.299 0.674-1.874 0.214-2.368-1.88-5.23-2.875-9.717-2.875-5.912 0-11.893 5.981-11.893 13.333s5.981 13.333 11.893 13.333c8.792 0 14.773-5.981 14.773-13.333 0-2.040-0.443-3.989-1.32-5.798-0.32-0.664-0.043-1.461 0.619-1.782 0.661-0.32 1.461-0.043 1.781 0.619 1.053 2.174 0.147 4.517 0.147 6.962 0 8.822-5.738 16-16 16z"></path>
</symbol>
<symbol id="icon-heart" viewBox="0 0 34 32">
<path d="M31.645 7.342c-1.090-3.87-4.291-6.181-6.677-6.994-2.725-0.952-5.995 0-8.925 2.578-2.93-2.51-6.2-3.394-8.925-2.51-2.384 0.882-5.587 3.19-6.677 6.994-0.749 2.512-0.818 6.587 3.134 11.544 1.771 2.24 4.496 5.432 6.744 7.944 4.293 4.822 4.974 5.093 5.587 5.093 0.069 0 0.069 0 0.136 0h0.136c0.614 0 1.227-0.27 5.518-5.16 2.25-2.581 4.974-5.773 6.746-7.946 3.952-4.955 3.952-9.030 3.202-11.542zM26.4 17.254c-3.134 3.939-8.517 10.118-10.357 11.818-1.84-1.699-7.222-7.878-10.355-11.818-2.589-3.19-3.542-6.314-2.725-9.099 0.816-2.851 3.202-4.549 4.973-5.158 1.976-0.749 4.634 0.27 7.085 2.648 0.477 0.474 1.158 0.542 1.704 0.202 0.136-0.067 0.272-0.134 0.341-0.272 2.453-2.307 5.11-3.326 7.085-2.648 1.771 0.68 4.157 2.378 4.974 5.229 0.818 2.717-0.136 5.909-2.725 9.099z"></path>
</symbol>
<symbol id="icon-search" viewBox="0 0 34 32">
<path d="M31.827 29.915l-9.296-9.296c1.763-2.178 2.824-4.946 2.824-7.957 0-6.986-5.682-12.667-12.666-12.667-6.986 0-12.667 5.682-12.667 12.667 0 6.984 5.682 12.666 12.667 12.666 3.013 0 5.779-1.061 7.957-2.824l9.296 9.296c0.259 0.261 0.682 0.261 0.942 0l0.942-0.942c0.261-0.261 0.261-0.683 0-0.942zM12.69 22.661c-5.515 0-10-4.485-10-9.998 0-5.515 4.485-10.002 10-10.002 5.514 0 10 4.486 10 10.002 0 5.514-4.486 9.998-10 9.998z"></path>
</symbol>
<symbol id="icon-user" viewBox="0 0 32 32">
<path d="M27.314 20.685c-1.742-1.744-3.818-3.034-6.080-3.814 2.424-1.669 4.016-4.462 4.016-7.622 0-5.101-4.149-9.25-10.69-9.25-3.661 0-7.81 4.149-7.81 9.25 0 3.16 1.592 5.954 4.016 7.622-2.264 0.781-4.338 2.070-6.080 3.814-3.022 3.022-4.686 7.040-4.686 11.312h2.499c0-7.443 6.056-13.498 12.061-13.498 8.883 0 14.939 6.054 14.939 13.498h1.061c0-4.272-0.224-8.29-3.246-11.312zM9.25 9.248c0-3.723 3.029-6.75 5.31-6.75 5.162 0 8.19 3.027 8.19 6.75 0 3.722-3.029 6.75-8.19 6.75-2.282 0-5.31-3.029-5.31-6.75z"></path>
</symbol>
<symbol id="icon-usesr-gray" viewBox="0 0 32 32">
<path d="M27.314 20.685c-1.742-1.742-3.818-3.034-6.080-3.813 2.424-1.67 4.016-4.464 4.016-7.624 0-5.099-4.149-9.25-10.69-9.25-3.661 0-7.81 4.15-7.81 9.25 0 3.16 1.592 5.954 4.016 7.624-2.264 0.779-4.338 2.070-6.080 3.813-3.022 3.022-4.686 7.038-4.686 11.314h2.501c0-7.443 6.056-13.499 12.059-13.499 8.883 0 14.941 6.056 14.941 13.499h1.059c0-4.275-0.224-8.291-3.246-11.314zM9.25 9.248c0-3.722 3.029-6.749 5.31-6.749 5.162 0 8.19 3.027 8.19 6.749s-3.029 6.75-8.19 6.75c-2.282 0-5.31-3.029-5.31-6.75z"></path>
</symbol>
<symbol id="icon-google" viewBox="0 0 32 32">
<path d="M16.319 13.713v5.487h9.075c-0.369 2.356-2.744 6.9-9.075 6.9-5.463 0-9.919-4.525-9.919-10.1s4.456-10.1 9.919-10.1c3.106 0 5.188 1.325 6.375 2.469l4.344-4.181c-2.788-2.612-6.4-4.188-10.719-4.188-8.844 0-16 7.156-16 16s7.156 16 16 16c9.231 0 15.363-6.494 15.363-15.631 0-1.050-0.113-1.85-0.25-2.65l-15.113-0.006z"></path>
</symbol>
<symbol id="icon-instagram" viewBox="0 0 32 32">
<path d="M16 2.881c4.275 0 4.781 0.019 6.462 0.094 1.563 0.069 2.406 0.331 2.969 0.55 0.744 0.288 1.281 0.638 1.837 1.194 0.563 0.563 0.906 1.094 1.2 1.838 0.219 0.563 0.481 1.412 0.55 2.969 0.075 1.688 0.094 2.194 0.094 6.463s-0.019 4.781-0.094 6.463c-0.069 1.563-0.331 2.406-0.55 2.969-0.288 0.744-0.637 1.281-1.194 1.837-0.563 0.563-1.094 0.906-1.837 1.2-0.563 0.219-1.413 0.481-2.969 0.55-1.688 0.075-2.194 0.094-6.463 0.094s-4.781-0.019-6.463-0.094c-1.563-0.069-2.406-0.331-2.969-0.55-0.744-0.288-1.281-0.637-1.838-1.194-0.563-0.563-0.906-1.094-1.2-1.837-0.219-0.563-0.481-1.413-0.55-2.969-0.075-1.688-0.094-2.194-0.094-6.463s0.019-4.781 0.094-6.463c0.069-1.563 0.331-2.406 0.55-2.969 0.288-0.744 0.638-1.281 1.194-1.838 0.563-0.563 1.094-0.906 1.838-1.2 0.563-0.219 1.412-0.481 2.969-0.55 1.681-0.075 2.188-0.094 6.463-0.094zM16 0c-4.344 0-4.887 0.019-6.594 0.094-1.7 0.075-2.869 0.35-3.881 0.744-1.056 0.412-1.95 0.956-2.837 1.85-0.894 0.888-1.438 1.781-1.85 2.831-0.394 1.019-0.669 2.181-0.744 3.881-0.075 1.713-0.094 2.256-0.094 6.6s0.019 4.887 0.094 6.594c0.075 1.7 0.35 2.869 0.744 3.881 0.413 1.056 0.956 1.95 1.85 2.837 0.887 0.887 1.781 1.438 2.831 1.844 1.019 0.394 2.181 0.669 3.881 0.744 1.706 0.075 2.25 0.094 6.594 0.094s4.888-0.019 6.594-0.094c1.7-0.075 2.869-0.35 3.881-0.744 1.050-0.406 1.944-0.956 2.831-1.844s1.438-1.781 1.844-2.831c0.394-1.019 0.669-2.181 0.744-3.881 0.075-1.706 0.094-2.25 0.094-6.594s-0.019-4.887-0.094-6.594c-0.075-1.7-0.35-2.869-0.744-3.881-0.394-1.063-0.938-1.956-1.831-2.844-0.887-0.887-1.781-1.438-2.831-1.844-1.019-0.394-2.181-0.669-3.881-0.744-1.712-0.081-2.256-0.1-6.6-0.1v0z"></path>
<path d="M16 7.781c-4.537 0-8.219 3.681-8.219 8.219s3.681 8.219 8.219 8.219 8.219-3.681 8.219-8.219c0-4.537-3.681-8.219-8.219-8.219zM16 21.331c-2.944 0-5.331-2.387-5.331-5.331s2.387-5.331 5.331-5.331c2.944 0 5.331 2.387 5.331 5.331s-2.387 5.331-5.331 5.331z"></path>
<path d="M26.462 7.456c0 1.060-0.859 1.919-1.919 1.919s-1.919-0.859-1.919-1.919c0-1.060 0.859-1.919 1.919-1.919s1.919 0.859 1.919 1.919z"></path>
</symbol>
<symbol id="icon-linkedin2" viewBox="0 0 32 32">
<path d="M12 12h5.535v2.837h0.079c0.77-1.381 2.655-2.837 5.464-2.837 5.842 0 6.922 3.637 6.922 8.367v9.633h-5.769v-8.54c0-2.037-0.042-4.657-3.001-4.657-3.005 0-3.463 2.218-3.463 4.509v8.688h-5.767v-18z"></path>
<path d="M2 12h6v18h-6v-18z"></path>
<path d="M8 7c0 1.657-1.343 3-3 3s-3-1.343-3-3c0-1.657 1.343-3 3-3s3 1.343 3 3z"></path>
</symbol>
<symbol id="icon-pinterest2" viewBox="0 0 32 32">
<path d="M16 0c-8.825 0-16 7.175-16 16s7.175 16 16 16 16-7.175 16-16-7.175-16-16-16zM16 29.863c-1.431 0-2.806-0.219-4.106-0.619 0.563-0.919 1.412-2.431 1.725-3.631 0.169-0.65 0.863-3.294 0.863-3.294 0.45 0.863 1.775 1.594 3.175 1.594 4.181 0 7.194-3.844 7.194-8.625 0-4.581-3.738-8.006-8.544-8.006-5.981 0-9.156 4.019-9.156 8.387 0 2.031 1.081 4.563 2.813 5.369 0.262 0.125 0.4 0.069 0.463-0.188 0.044-0.194 0.281-1.131 0.387-1.575 0.031-0.137 0.019-0.262-0.094-0.4-0.575-0.694-1.031-1.975-1.031-3.162 0-3.056 2.313-6.019 6.256-6.019 3.406 0 5.788 2.319 5.788 5.637 0 3.75-1.894 6.35-4.356 6.35-1.363 0-2.381-1.125-2.050-2.506 0.394-1.65 1.15-3.425 1.15-4.613 0-1.063-0.569-1.95-1.756-1.95-1.394 0-2.506 1.438-2.506 3.369 0 1.225 0.412 2.056 0.412 2.056s-1.375 5.806-1.625 6.887c-0.281 1.2-0.169 2.881-0.050 3.975-5.156-2.012-8.813-7.025-8.813-12.9 0-7.656 6.206-13.863 13.862-13.863s13.863 6.206 13.863 13.863c0 7.656-6.206 13.863-13.863 13.863z"></path>
</symbol>
</defs>
</svg>
